<svg width="50" height="50" viewBox="0 0 50 50" fill="none" xmlns="http://www.w3.org/2000/svg">
<path d="M25 9.80624C18.8792 5.99374 9.55 4.45832 0 4.16666V41.0708C8.20208 41.3208 16.2396 42.4896 22.2229 45.2271C23.9854 46.0354 26.0083 46.0354 27.7792 45.2271C33.7625 42.4896 41.7979 41.3208 50 41.0708V4.16666C40.45 4.45832 31.1208 5.99374 25 9.80624ZM22.9167 40.8521C19.7396 39.7146 13.0917 37.7167 4.16667 37.1042V8.55624C14.9083 9.36666 19.8479 11.6042 22.9167 13.4187V40.8521ZM45.8333 37.1062C36.9104 37.7167 30.2604 39.7146 27.0833 40.8542V13.4146C28.8917 12.3417 31.4 11.1083 35.4167 10.1146V22.9167L38.5417 19.7917L41.6667 22.9167V8.97707C42.9521 8.81249 44.3312 8.66874 45.8333 8.55624V37.1062Z" fill="black"/>
</svg>
